<mxfile host="app.diagrams.net" modified="2024-05-17T05:44:36.047Z" agent="Mozilla/5.0 (Macintosh; Intel Mac OS X 10_15_7) AppleWebKit/537.36 (KHTML, like Gecko) Chrome/124.0.0.0 Safari/537.36" etag="34wjc75MX7SUHipyrbRs" version="24.3.1" type="github">
  <diagram name="第 1 页" id="G-CQsra3cPjCaxEHZSTz">
    <mxGraphModel dx="2133" dy="701" grid="1" gridSize="10" guides="1" tooltips="1" connect="1" arrows="1" fold="1" page="1" pageScale="1" pageWidth="827" pageHeight="1169" math="0" shadow="0">
      <root>
        <mxCell id="0" />
        <mxCell id="1" parent="0" />
        <mxCell id="0cUZzgsIoBfnd9MZqFwn-6" style="edgeStyle=orthogonalEdgeStyle;rounded=0;orthogonalLoop=1;jettySize=auto;html=1;exitX=1;exitY=0.5;exitDx=0;exitDy=0;dashed=1;" edge="1" parent="1" source="0cUZzgsIoBfnd9MZqFwn-1" target="0cUZzgsIoBfnd9MZqFwn-5">
          <mxGeometry relative="1" as="geometry" />
        </mxCell>
        <mxCell id="0cUZzgsIoBfnd9MZqFwn-1" value="通知缓存预热&lt;div&gt;&lt;br&gt;&lt;/div&gt;" style="rounded=1;whiteSpace=wrap;html=1;fillColor=none;" vertex="1" parent="1">
          <mxGeometry x="180" y="160" width="120" height="60" as="geometry" />
        </mxCell>
        <mxCell id="0cUZzgsIoBfnd9MZqFwn-3" style="edgeStyle=orthogonalEdgeStyle;rounded=0;orthogonalLoop=1;jettySize=auto;html=1;exitX=0.5;exitY=1;exitDx=0;exitDy=0;entryX=0.5;entryY=0;entryDx=0;entryDy=0;" edge="1" parent="1" source="0cUZzgsIoBfnd9MZqFwn-2" target="0cUZzgsIoBfnd9MZqFwn-1">
          <mxGeometry relative="1" as="geometry" />
        </mxCell>
        <mxCell id="0cUZzgsIoBfnd9MZqFwn-2" value="点击触发组网" style="rounded=1;whiteSpace=wrap;html=1;fillColor=none;" vertex="1" parent="1">
          <mxGeometry x="180" y="50" width="120" height="60" as="geometry" />
        </mxCell>
        <mxCell id="0cUZzgsIoBfnd9MZqFwn-4" value="&lt;p&gt;发送metaq&lt;br&gt;topic:SOLUTION_NETWORK_CACHE_WARMUP&lt;/p&gt;&lt;p&gt;message:&lt;span style=&quot;background-color: initial;&quot;&gt;{&lt;/span&gt;&lt;/p&gt;&lt;p&gt;&amp;nbsp; &amp;nbsp; &quot;solutionNetworkId&quot;:&quot;XXX&quot;,&lt;/p&gt;&lt;p&gt;&amp;nbsp; &amp;nbsp; &quot;Action&quot;:&quot;WRITE&quot;&lt;/p&gt;&lt;p&gt;}&lt;/p&gt;" style="text;html=1;align=center;verticalAlign=middle;whiteSpace=wrap;rounded=0;" vertex="1" parent="1">
          <mxGeometry x="-180" y="140" width="370" height="150" as="geometry" />
        </mxCell>
        <mxCell id="0cUZzgsIoBfnd9MZqFwn-9" value="" style="edgeStyle=orthogonalEdgeStyle;rounded=0;orthogonalLoop=1;jettySize=auto;html=1;" edge="1" parent="1" source="0cUZzgsIoBfnd9MZqFwn-5" target="0cUZzgsIoBfnd9MZqFwn-8">
          <mxGeometry relative="1" as="geometry" />
        </mxCell>
        <mxCell id="0cUZzgsIoBfnd9MZqFwn-5" value="Listener process" style="rounded=1;whiteSpace=wrap;html=1;fillColor=none;" vertex="1" parent="1">
          <mxGeometry x="500" y="160" width="120" height="60" as="geometry" />
        </mxCell>
        <mxCell id="0cUZzgsIoBfnd9MZqFwn-7" value="否" style="text;html=1;align=center;verticalAlign=middle;whiteSpace=wrap;rounded=0;" vertex="1" parent="1">
          <mxGeometry x="630" y="290" width="45" height="20" as="geometry" />
        </mxCell>
        <mxCell id="0cUZzgsIoBfnd9MZqFwn-11" value="" style="edgeStyle=orthogonalEdgeStyle;rounded=0;orthogonalLoop=1;jettySize=auto;html=1;" edge="1" parent="1" source="0cUZzgsIoBfnd9MZqFwn-8" target="0cUZzgsIoBfnd9MZqFwn-10">
          <mxGeometry relative="1" as="geometry" />
        </mxCell>
        <mxCell id="0cUZzgsIoBfnd9MZqFwn-15" style="edgeStyle=orthogonalEdgeStyle;rounded=0;orthogonalLoop=1;jettySize=auto;html=1;exitX=0.5;exitY=1;exitDx=0;exitDy=0;entryX=0.5;entryY=0;entryDx=0;entryDy=0;" edge="1" parent="1" source="0cUZzgsIoBfnd9MZqFwn-8" target="0cUZzgsIoBfnd9MZqFwn-14">
          <mxGeometry relative="1" as="geometry" />
        </mxCell>
        <mxCell id="0cUZzgsIoBfnd9MZqFwn-8" value="是否国内环境" style="rhombus;whiteSpace=wrap;html=1;fillColor=none;rounded=1;" vertex="1" parent="1">
          <mxGeometry x="505" y="290" width="110" height="60" as="geometry" />
        </mxCell>
        <mxCell id="0cUZzgsIoBfnd9MZqFwn-10" value="结束" style="whiteSpace=wrap;html=1;fillColor=none;rounded=1;" vertex="1" parent="1">
          <mxGeometry x="690" y="290" width="120" height="60" as="geometry" />
        </mxCell>
        <mxCell id="0cUZzgsIoBfnd9MZqFwn-13" value="是" style="text;html=1;align=center;verticalAlign=middle;whiteSpace=wrap;rounded=0;" vertex="1" parent="1">
          <mxGeometry x="570" y="360" width="45" height="20" as="geometry" />
        </mxCell>
        <mxCell id="0cUZzgsIoBfnd9MZqFwn-17" value="" style="edgeStyle=orthogonalEdgeStyle;rounded=0;orthogonalLoop=1;jettySize=auto;html=1;" edge="1" parent="1" source="0cUZzgsIoBfnd9MZqFwn-14" target="0cUZzgsIoBfnd9MZqFwn-16">
          <mxGeometry relative="1" as="geometry" />
        </mxCell>
        <mxCell id="0cUZzgsIoBfnd9MZqFwn-20" style="edgeStyle=orthogonalEdgeStyle;rounded=0;orthogonalLoop=1;jettySize=auto;html=1;exitX=0;exitY=0.5;exitDx=0;exitDy=0;entryX=1;entryY=0.5;entryDx=0;entryDy=0;dashed=1;" edge="1" parent="1" source="0cUZzgsIoBfnd9MZqFwn-14" target="0cUZzgsIoBfnd9MZqFwn-18">
          <mxGeometry relative="1" as="geometry" />
        </mxCell>
        <mxCell id="0cUZzgsIoBfnd9MZqFwn-14" value="&lt;div&gt;t_sc_task表插入3条数据&lt;br&gt;&lt;/div&gt;&lt;div&gt;bizId=networkId,&lt;/div&gt;&lt;div&gt;bizType=SOLUTION_NETWORK_CACHE_WARMUP&lt;/div&gt;&lt;div&gt;action=WRITE,&lt;/div&gt;&lt;div&gt;status=NEW,&lt;/div&gt;&lt;div&gt;env=各个环节（3个）&lt;/div&gt;&lt;div&gt;&lt;br&gt;&lt;/div&gt;&lt;div&gt;&lt;br&gt;&lt;/div&gt;" style="rounded=1;whiteSpace=wrap;html=1;fillColor=none;" vertex="1" parent="1">
          <mxGeometry x="490" y="410" width="140" height="60" as="geometry" />
        </mxCell>
        <mxCell id="0cUZzgsIoBfnd9MZqFwn-23" style="edgeStyle=orthogonalEdgeStyle;rounded=0;orthogonalLoop=1;jettySize=auto;html=1;exitX=0;exitY=0.5;exitDx=0;exitDy=0;" edge="1" parent="1" source="0cUZzgsIoBfnd9MZqFwn-16" target="0cUZzgsIoBfnd9MZqFwn-22">
          <mxGeometry relative="1" as="geometry" />
        </mxCell>
        <mxCell id="0cUZzgsIoBfnd9MZqFwn-16" value="中心环境taskId处理任务，更新中心环境status=SUCCESS" style="whiteSpace=wrap;html=1;fillColor=none;rounded=1;" vertex="1" parent="1">
          <mxGeometry x="500" y="550" width="120" height="60" as="geometry" />
        </mxCell>
        <mxCell id="0cUZzgsIoBfnd9MZqFwn-29" style="edgeStyle=orthogonalEdgeStyle;rounded=0;orthogonalLoop=1;jettySize=auto;html=1;exitX=0;exitY=0.5;exitDx=0;exitDy=0;entryX=0;entryY=0.5;entryDx=0;entryDy=0;" edge="1" parent="1" source="0cUZzgsIoBfnd9MZqFwn-18" target="0cUZzgsIoBfnd9MZqFwn-27">
          <mxGeometry relative="1" as="geometry" />
        </mxCell>
        <mxCell id="0cUZzgsIoBfnd9MZqFwn-18" value="发送metaq" style="rounded=1;whiteSpace=wrap;html=1;fillColor=none;" vertex="1" parent="1">
          <mxGeometry x="160" y="410" width="120" height="60" as="geometry" />
        </mxCell>
        <mxCell id="0cUZzgsIoBfnd9MZqFwn-19" value="metaq 触发" style="text;html=1;align=center;verticalAlign=middle;whiteSpace=wrap;rounded=0;" vertex="1" parent="1">
          <mxGeometry x="370" y="160" width="45" height="20" as="geometry" />
        </mxCell>
        <mxCell id="0cUZzgsIoBfnd9MZqFwn-21" value="精卫触发" style="text;html=1;align=center;verticalAlign=middle;whiteSpace=wrap;rounded=0;" vertex="1" parent="1">
          <mxGeometry x="350" y="410" width="55" height="20" as="geometry" />
        </mxCell>
        <mxCell id="0cUZzgsIoBfnd9MZqFwn-30" style="edgeStyle=orthogonalEdgeStyle;rounded=0;orthogonalLoop=1;jettySize=auto;html=1;exitX=0.5;exitY=1;exitDx=0;exitDy=0;entryX=0.5;entryY=0;entryDx=0;entryDy=0;" edge="1" parent="1" source="0cUZzgsIoBfnd9MZqFwn-22" target="0cUZzgsIoBfnd9MZqFwn-27">
          <mxGeometry relative="1" as="geometry" />
        </mxCell>
        <mxCell id="0cUZzgsIoBfnd9MZqFwn-22" value="&lt;div&gt;发送metaq&lt;br&gt;&lt;/div&gt;" style="rounded=1;whiteSpace=wrap;html=1;fillColor=none;" vertex="1" parent="1">
          <mxGeometry x="160" y="550" width="120" height="60" as="geometry" />
        </mxCell>
        <mxCell id="0cUZzgsIoBfnd9MZqFwn-24" value="精卫触发" style="text;html=1;align=center;verticalAlign=middle;whiteSpace=wrap;rounded=0;" vertex="1" parent="1">
          <mxGeometry x="365" y="550" width="55" height="20" as="geometry" />
        </mxCell>
        <mxCell id="0cUZzgsIoBfnd9MZqFwn-25" value="&lt;div&gt;topic:OT_JING_WEI_TASK&lt;/div&gt;&lt;div&gt;tag:MQ_EXPRESSION_EXCLUDE_HZ_FT_HOST&lt;/div&gt;&lt;div&gt;{&lt;/div&gt;&lt;div&gt;&amp;nbsp; &amp;nbsp; &quot;taskId&quot;:&quot;XXX&quot;,&lt;/div&gt;&lt;div&gt;&amp;nbsp; &amp;nbsp; &quot;Action&quot;:&quot;INSERT&quot;,&lt;/div&gt;&lt;div&gt;&amp;nbsp; &amp;nbsp; &quot;tableName&quot;:&quot;T_SC_TASK&quot;,&lt;/div&gt;&lt;div&gt;&amp;nbsp; &amp;nbsp;&amp;nbsp;&lt;/div&gt;&lt;div&gt;}&lt;/div&gt;" style="text;html=1;align=center;verticalAlign=middle;whiteSpace=wrap;rounded=0;" vertex="1" parent="1">
          <mxGeometry x="-10" y="440" width="60" height="30" as="geometry" />
        </mxCell>
        <mxCell id="0cUZzgsIoBfnd9MZqFwn-26" value="&lt;div&gt;topic:OT_JING_WEI_TASK&lt;/div&gt;&lt;div&gt;tag:MQ_EXPRESSION_EXCLUDE_HZ_FT_HOST&lt;/div&gt;&lt;div&gt;{&lt;/div&gt;&lt;div&gt;&amp;nbsp; &amp;nbsp; &quot;taskId&quot;:&quot;XXX&quot;,&lt;/div&gt;&lt;div&gt;&amp;nbsp; &amp;nbsp; &quot;Action&quot;:&quot;UPDATE&quot;,&lt;/div&gt;&lt;div&gt;&amp;nbsp; &amp;nbsp; &quot;tableName&quot;:&quot;T_SC_TASK&quot;,&lt;/div&gt;&lt;div&gt;&amp;nbsp; &amp;nbsp;&amp;nbsp;&lt;/div&gt;&lt;div&gt;}&lt;/div&gt;" style="text;html=1;align=center;verticalAlign=middle;whiteSpace=wrap;rounded=0;" vertex="1" parent="1">
          <mxGeometry x="-20" y="585" width="60" height="30" as="geometry" />
        </mxCell>
        <mxCell id="0cUZzgsIoBfnd9MZqFwn-32" value="" style="edgeStyle=orthogonalEdgeStyle;rounded=0;orthogonalLoop=1;jettySize=auto;html=1;" edge="1" parent="1" source="0cUZzgsIoBfnd9MZqFwn-27" target="0cUZzgsIoBfnd9MZqFwn-31">
          <mxGeometry relative="1" as="geometry" />
        </mxCell>
        <mxCell id="0cUZzgsIoBfnd9MZqFwn-27" value="Listener process" style="rounded=1;whiteSpace=wrap;html=1;fillColor=none;" vertex="1" parent="1">
          <mxGeometry x="160" y="700" width="120" height="60" as="geometry" />
        </mxCell>
        <mxCell id="0cUZzgsIoBfnd9MZqFwn-33" style="edgeStyle=orthogonalEdgeStyle;rounded=0;orthogonalLoop=1;jettySize=auto;html=1;exitX=0.5;exitY=1;exitDx=0;exitDy=0;" edge="1" parent="1" source="0cUZzgsIoBfnd9MZqFwn-31">
          <mxGeometry relative="1" as="geometry">
            <mxPoint x="220" y="970" as="targetPoint" />
          </mxGeometry>
        </mxCell>
        <mxCell id="0cUZzgsIoBfnd9MZqFwn-31" value="查询任务状态。&lt;div&gt;1. success不处理；&lt;/div&gt;&lt;div&gt;2. 中心环境不处理&lt;br&gt;&lt;div&gt;&lt;br&gt;&lt;/div&gt;&lt;/div&gt;" style="whiteSpace=wrap;html=1;fillColor=none;rounded=1;" vertex="1" parent="1">
          <mxGeometry x="160" y="840" width="120" height="60" as="geometry" />
        </mxCell>
        <mxCell id="0cUZzgsIoBfnd9MZqFwn-37" style="edgeStyle=orthogonalEdgeStyle;rounded=0;orthogonalLoop=1;jettySize=auto;html=1;exitX=1;exitY=0.5;exitDx=0;exitDy=0;entryX=0;entryY=0.5;entryDx=0;entryDy=0;dashed=1;dashPattern=8 8;" edge="1" parent="1" source="0cUZzgsIoBfnd9MZqFwn-34" target="0cUZzgsIoBfnd9MZqFwn-36">
          <mxGeometry relative="1" as="geometry" />
        </mxCell>
        <mxCell id="0cUZzgsIoBfnd9MZqFwn-34" value="&lt;div&gt;&lt;div&gt;发送metaq&lt;br&gt;&lt;/div&gt;&lt;/div&gt;" style="whiteSpace=wrap;html=1;fillColor=none;rounded=1;" vertex="1" parent="1">
          <mxGeometry x="160" y="970" width="120" height="60" as="geometry" />
        </mxCell>
        <mxCell id="0cUZzgsIoBfnd9MZqFwn-35" value="&lt;p&gt;发送metaq&lt;br&gt;topic:SOLUTION_NETWORK_CACHE_WARMUP&lt;/p&gt;&lt;p&gt;message:&lt;span style=&quot;background-color: initial;&quot;&gt;{&lt;/span&gt;&lt;/p&gt;&lt;p&gt;&amp;nbsp; &amp;nbsp; &quot;solutionNetworkId&quot;:&quot;XXX&quot;,&lt;/p&gt;&lt;p&gt;&amp;nbsp; &amp;nbsp; &quot;Action&quot;:&quot;WRITE&quot;，&lt;/p&gt;&lt;p&gt;&quot;taskId&quot;:&quot;XXX&quot;&lt;/p&gt;&lt;p&gt;}&lt;/p&gt;" style="text;html=1;align=center;verticalAlign=middle;whiteSpace=wrap;rounded=0;" vertex="1" parent="1">
          <mxGeometry x="-230" y="950" width="370" height="150" as="geometry" />
        </mxCell>
        <mxCell id="0cUZzgsIoBfnd9MZqFwn-36" value="预热；&lt;div&gt;更新任务status=SUCCESS&lt;/div&gt;" style="whiteSpace=wrap;html=1;fillColor=none;rounded=1;" vertex="1" parent="1">
          <mxGeometry x="450" y="970" width="120" height="60" as="geometry" />
        </mxCell>
        <mxCell id="0cUZzgsIoBfnd9MZqFwn-38" value="metaq 触发" style="text;html=1;align=center;verticalAlign=middle;whiteSpace=wrap;rounded=0;" vertex="1" parent="1">
          <mxGeometry x="340" y="970" width="45" height="20" as="geometry" />
        </mxCell>
      </root>
    </mxGraphModel>
  </diagram>
</mxfile>
